# xmcd
#
# Track frame offsets:
#	150
#	15589
#	61421
#	97830
#	121367
#	143218
#	170588
#
# Disc length: 2589 seconds
#
# Revision: 0
# Processed by: cddbd v1.5.2PL0 Copyright (c) Steve Scherf et al.
# Submitted via: dBpowerAMP V4.0
#
DISCID=560a1b07
DTITLE=MOFRO - Florida Music Harvest 09-22-02
DYEAR=1900
DGENRE=
TTITLE0=How Junior Got His Head Put Out
TTITLE1=Blackwater
TTITLE2=Lazy Fo Acre
TTITLE3=Lochloosa
TTITLE4=Florida
TTITLE5=Harp 'n' Drum
TTITLE6=Ho Cake
EXTD=live MOFRO
EXTT0=
EXTT1=
EXTT2=
EXTT3=
EXTT4=
EXTT5=
EXTT6=
PLAYORDER=
